<?xml version="1.0" encoding="UTF-8"?><svg id="Ebene_2" xmlns="http://www.w3.org/2000/svg" viewBox="0 0 158.1074 69.1526"><defs><style>.cls-1{fill:#3c8eae;}.cls-1,.cls-2{stroke-width:0px;}.cls-2{fill:#f6f6f6;}</style></defs><g id="Ebene_1-2"><g id="Logo"><path class="cls-2" d="m66.253,69.1526h-4.05c-1.2-.97-2.37-1.98-3.51-3.04-3.21-2.93-6.17-6.12-8.83-9.51h-17.21v12.55h-2.52v-26.64h2.52v11.73h15.41c-2.59-3.51-4.88-7.21-6.87-11.08-.1-.21-.22-.43-.32-.65h2.8c5.41,10.35,13.09,19.5,22.58,26.64Z"/><path class="cls-2" d="m118.383,9.3226c-1.24,0-2.49.23-3.61.69-.98.39-1.88.95-2.6,1.6801-.04.91-.12,1.8199-.25,2.75-.01.08-.02.15-.03.22-.82,7.47-2.72,14.72-5.56,21.56h2.7c1.12-2.79,2.09-5.64,2.89-8.55l.71-2.74c.01-.04.02-.09.04-.14h9.41v11.43h2.48V11.6926c-1.52-1.56-3.85-2.3701-6.18-2.3701Zm3.7,13.1h-8.88c.02-.12.05-.24.07-.36.05-.28.11-.56.16-.84.06-.32.1201-.63.17-.94.35-2.13.61-4.31.98-7.41,1-.85,2.39-1.29,3.8-1.29,1.4,0,2.7.44,3.7,1.29v9.55Z"/><path class="cls-2" d="m134.9819,36.2295c-2.1831,0-4.5513-.5918-6.5493-2.1826V11.2529c1.9243-1.5537,4.2925-2.1826,6.5493-2.1826,2.1831,0,4.5884.5918,6.5864,2.1826v7.1045h-2.5161v-5.8096c-1.147-.8135-2.5532-1.2207-4.0703-1.2207-1.4429,0-2.8491.3701-4.0703,1.2207v20.2041c1.1475.8135,2.5903,1.2207,4.0703,1.2207s2.8862-.3701,4.0703-1.2207v-5.8096h2.5161v7.1045c-1.9238,1.5537-4.3291,2.1826-6.5864,2.1826Z"/><path class="cls-2" d="m153.1855,25.832v10.1387h-2.5156v-10.1387c-1.665-.2217-3.5894-.9619-4.958-2.2939v-14.209h2.5161v13.0615c.814.8887,2.2202,1.2959,3.6997,1.2959,1.4805,0,2.8496-.4072,3.7002-1.2959v-13.0615h2.4795v14.209c-1.2949,1.2949-3.2197,2.0723-4.9219,2.2939Z"/><path class="cls-2" d="m111.573,55.2226c1.3-.33,2.33-.96,3.11-1.85v-8.47c-1.41-1.78-3.59-2.55-6.8799-2.55h-4.32c-5.36,10.34-12.9901,19.48-22.43,26.64h26.97c3.29,0,5.44-.81,6.88-2.59v-9.29c-.74-.85-2.07-1.7-3.33-1.89Zm-3.77-10.62c2.22,0,3.55.37,4.4,1.3v6.77c-.89,1-2.11,1.52-4.29,1.52h-8.85c2.2401-3.05,4.26-6.26,6.05-9.59h2.69Zm4.59,20.84c-.82.96-2.19,1.29-4.41,1.29h-20.27c3.56-3.2,6.82-6.69,9.75-10.43h10.45c2.26,0,3.52.44,4.48,1.51v7.63Z"/><path class="cls-2" d="m5.0327,24.9072h-2.5161v11.0645H0V9.3301h5.0327c3.478,0,5.291.8877,6.8823,2.8857v9.8057c-1.5913,1.9609-3.4043,2.8857-6.8823,2.8857Zm4.3662-11.6553c-.9253-1.1104-2.146-1.6279-4.4033-1.6279h-2.479v10.9893h2.479c2.2202,0,3.4043-.4805,4.4033-1.6279v-7.7334Z"/><path class="cls-2" d="m25.5679,35.9717v-10.5459c-.9253-.9619-2.3315-1.4805-4.4775-1.4805h-2.96v12.0264h-2.5166V9.3301h5.6616c3.478,0,5.1064.7393,6.6973,2.7012v9.1758c-.7769.7402-1.813,1.2959-3.0342,1.665,1.1841.2598,2.4053.9258,3.1455,1.7021v11.3975h-2.5161Zm-.1113-22.9414c-.9248-1.1104-1.9609-1.4062-4.1812-1.4062h-3.145v10.1758h3.0342c2.1831,0,3.4038-.5186,4.292-1.4805v-7.2891Z"/><path class="cls-1" d="m73.5488,69.0098l-.6265-.3623c-20.8438-12.0547-33.7925-34.4795-33.7925-58.5225v-.7217l.6245-.3604C49.9937,3.127,61.6797,0,73.5483,0s23.5415,3.1201,33.772,9.0215l.6255.3613v.7422c0,24.0293-12.9404,46.4531-33.771,58.5225l-.626.3623ZM41.6338,10.8486c.2544,22.6377,12.415,43.6973,31.9141,55.2676,19.4932-11.5869,31.6475-32.6543,31.894-55.2871-9.6997-5.4512-20.7109-8.3291-31.8936-8.3291-11.1885,0-22.2065,2.8848-31.9146,8.3486Z"/><path class="cls-2" d="m40.633,35.9726h-2.69c-3.35-8.41-5.3-17.41-5.66-26.65h2.49c.39,9.27,2.41,18.27,5.86,26.65Z"/></g></g></svg>